<svg width="39" height="40" viewBox="0 0 39 40" fill="none" xmlns="http://www.w3.org/2000/svg">
<path d="M27.1736 39.9998C23.2462 39.9998 19.9172 38.8964 16.9249 36.7606C15.3727 35.6535 13.9999 34.3443 12.7619 32.8968C12.1971 32.2347 12.0512 31.4754 12.3542 30.66C12.6497 29.8559 13.2444 29.3659 14.0972 29.2275C15.2118 29.0442 16.3078 28.7786 17.3625 28.3634C19.6517 27.4583 21.4994 25.992 22.932 23.9946C23.0404 23.8413 23.1414 23.6842 23.2686 23.5458C23.9606 22.7865 24.8171 22.4985 25.8196 22.6967C27.2746 22.9847 28.3069 24.047 28.5426 25.5133C28.6922 26.4446 28.4677 27.2974 27.9104 28.0605C26.923 29.4145 25.7709 30.6152 24.4506 31.655C24.3758 31.7111 24.301 31.7672 24.2299 31.827C24.0167 32.0066 23.912 32.2347 23.9681 32.5153C24.0242 32.7995 24.1925 33.0015 24.473 33.0763C24.8807 33.1848 25.2922 33.2933 25.7073 33.3718C27.9403 33.787 30.1135 33.5252 32.2343 32.7397C32.5971 32.605 32.9562 32.4592 33.3452 32.4068C34.89 32.1973 36.4086 33.1698 36.835 34.6697C37.0407 35.3879 37.0295 36.1098 36.7602 36.8093C36.4871 37.5162 35.9897 38.0211 35.2865 38.2942C33.4612 39.0049 31.5797 39.5285 29.6347 39.8016C28.7371 39.9287 27.8356 39.9886 27.1736 39.9998Z" fill="#E4E2E4"/>
<path d="M2.91711 27.0017C1.95957 26.9381 0.994549 26.4743 0.358684 25.4569C-0.0116143 24.8622 -0.0602393 24.2039 0.0557127 23.5232C0.343722 21.8549 0.743944 20.2204 1.34241 18.6344C2.31117 16.0648 3.71007 13.7719 5.70743 11.8643C7.23725 10.4018 8.99523 9.29093 10.9328 8.45682C12.5636 7.75363 14.258 7.26738 16.001 6.95318C16.8313 6.80357 17.542 7.06165 18.0881 7.705C18.6454 8.35957 18.7801 9.11513 18.4846 9.92306C18.2452 10.5851 18.0133 11.2472 17.8412 11.9317C17.5084 13.2595 17.3812 14.606 17.4822 15.9713C17.5981 17.5348 18.0245 19.0197 18.6866 20.4411C19.0793 21.2789 19.0494 22.1168 18.5818 22.9209C17.9161 24.073 16.5358 24.7163 15.2192 24.5069C13.9699 24.3086 13.0872 23.6279 12.5673 22.4796C11.9127 21.032 11.4788 19.5172 11.2208 17.95C11.1908 17.7667 11.1609 17.5797 11.1385 17.3964C11.0749 16.8952 10.4054 16.5772 9.95277 16.9962C9.6685 17.2617 9.39919 17.5423 9.14485 17.834C7.75343 19.4312 6.88192 21.2827 6.45925 23.3511C6.3807 23.7289 6.33208 24.1179 6.24605 24.4957C5.92064 25.9656 4.6302 27.0017 2.90589 27.0055H2.91711V27.0017Z" fill="#E4E2E4"/>
<path d="M38.2039 15.3654C38.2039 17.389 37.9047 19.2629 37.3848 21.1032C37.2239 21.6755 37.0444 22.2478 36.8424 22.8051C36.5656 23.5719 36.0121 24.0619 35.2116 24.2264C34.3251 24.406 33.5771 24.1404 32.9973 23.441C32.4924 22.8313 31.965 22.244 31.3852 21.7054C29.4851 19.9549 27.2633 18.8814 24.7086 18.4999C24.3383 18.4438 23.9643 18.4251 23.5977 18.3652C22.7636 18.2343 22.1203 17.7967 21.7201 17.0598C20.5456 14.8942 21.9669 12.4592 24.1251 12.1001C24.6001 12.0215 25.0714 12.0627 25.5427 12.1263C27.1324 12.3357 28.6697 12.7434 30.1509 13.3606C30.6334 13.5626 31.1047 13.2671 31.172 12.8257C31.187 12.7172 31.172 12.5938 31.1496 12.4853C30.7606 10.9181 30.091 9.4818 29.1148 8.19136C28.4191 7.27496 27.6112 6.47451 26.7097 5.7601C26.0701 5.2514 25.6549 4.60057 25.5352 3.78891C25.3407 2.46855 25.7784 1.39505 26.8668 0.613309C27.2783 0.317817 27.7346 0.100874 28.2433 0.0298068C29.0362 -0.0824052 29.7394 0.123317 30.3566 0.628271C30.7493 0.953685 31.1383 1.28284 31.5199 1.62322C32.9936 2.9548 34.3102 4.42104 35.3986 6.08551C36.6217 7.95945 37.482 9.98301 37.9084 12.1824C38.1179 13.2633 38.2189 14.3593 38.2114 15.358L38.2039 15.3654Z" fill="#E4E2E4"/>
</svg>
