<svg width="24" height="24" viewBox="0 0 24 24" fill="none" xmlns="http://www.w3.org/2000/svg">
<g clip-path="url(#clip0_9499_12818)">
<path d="M12 0C18.6271 0 24 5.37288 24 12C24 18.6271 18.6269 24 12 24C5.37312 24 0 18.6286 0 12C0 5.37144 5.37216 0 12 0Z" fill="#53AE94"/>
<path d="M13.4826 10.4035V8.61836H17.5647V5.89844H6.44891V8.61836H10.5315V10.402C7.21355 10.5544 4.71875 11.2116 4.71875 11.9988C4.71875 12.786 7.21475 13.4431 10.5315 13.5964V19.3144H13.4836V13.596C16.7955 13.4431 19.2853 12.7864 19.2853 12C19.2853 11.2135 16.7955 10.5568 13.4836 10.404M13.4836 13.1116V13.1102C13.4003 13.1155 12.9724 13.1412 12.0195 13.1412C11.2578 13.1412 10.7219 13.1196 10.533 13.1097V13.1121C7.60163 12.9823 5.41355 12.4718 5.41355 11.861C5.41355 11.2502 7.60187 10.7404 10.533 10.6104V12.6036C10.725 12.6168 11.2741 12.6492 12.032 12.6492C12.9423 12.6492 13.4 12.6112 13.484 12.6036V10.6104C16.4096 10.7407 18.5927 11.2516 18.5927 11.8603C18.5927 12.4689 16.4087 12.9801 13.484 13.1104" fill="#F6F1F2"/>
</g>
<defs>
<clipPath id="clip0_9499_12818">
<rect width="24" height="24" fill="white"/>
</clipPath>
</defs>
</svg>
